<?xml version="1.0" encoding="UTF-8"?>
<svg version="1.1" xmlns="http://www.w3.org/2000/svg" width="346" height="292">
<path d="M0 0 C1.22796043 -0.01052147 1.22796043 -0.01052147 2.48072815 -0.02125549 C5.10700041 -0.03865565 7.73304722 -0.04510732 10.359375 -0.046875 C11.25643158 -0.04754974 12.15348816 -0.04822449 13.07772827 -0.04891968 C26.29419259 -0.03310927 39.16113625 0.30088474 52.109375 3.203125 C52.89393066 3.37473145 53.67848633 3.54633789 54.48681641 3.72314453 C72.6233836 7.81236853 89.76678689 14.38202175 106.109375 23.203125 C107.64271484 24.01523437 107.64271484 24.01523437 109.20703125 24.84375 C142.66692329 43.39755285 168.77807055 73.86679975 180.078125 110.515625 C180.4184375 111.7325 180.75875 112.949375 181.109375 114.203125 C181.4290625 115.3375 181.74875 116.471875 182.078125 117.640625 C186.77920265 137.8378475 185.62063347 160.30701878 180.109375 180.203125 C179.78195312 181.46125 179.45453125 182.719375 179.1171875 184.015625 C172.3072602 207.07990432 158.15251479 226.59698879 141.109375 243.203125 C140.59761719 243.76 140.08585937 244.316875 139.55859375 244.890625 C128.94946972 256.15855973 115.67617831 264.0252121 102.109375 271.203125 C101.11679687 271.74582031 100.12421875 272.28851563 99.1015625 272.84765625 C86.20771553 279.65373982 72.48696079 284.08273373 58.359375 287.515625 C57.36719971 287.75796875 56.37502441 288.0003125 55.3527832 288.25 C40.80227913 291.62845597 26.60577389 292.6130009 11.734375 292.578125 C10.85808441 292.57758118 9.98179382 292.57703735 9.07894897 292.57647705 C-40.69473594 292.43497645 -88.74221416 274.57067525 -124.12109375 239.0078125 C-130.89012464 231.99388793 -136.72629533 224.48510219 -141.890625 216.203125 C-142.45692627 215.30086182 -142.45692627 215.30086182 -143.03466797 214.38037109 C-149.52744446 203.87486817 -154.24544854 192.99519785 -157.890625 181.203125 C-158.1165332 180.48415039 -158.34244141 179.76517578 -158.57519531 179.02441406 C-164.44309118 159.4016655 -164.54595248 133.85994875 -158.890625 114.203125 C-158.5503125 112.98882812 -158.21 111.77453125 -157.859375 110.5234375 C-145.6390772 70.80746966 -116.46166688 40.62722185 -80.578125 20.953125 C-56.37637143 8.21017428 -27.39951365 0.15808979 0 0 Z " fill="#01FC08" transform="translate(161.890625,-0.203125)"/>
<path d="M0 0 C7.61392659 6.5035623 15.12853778 13.10380239 22.5625 19.8125 C24.69417481 21.72554149 26.8401911 23.61887612 29 25.5 C32.89512811 28.89253093 36.72782763 32.35194201 40.5625 35.8125 C42.69417481 37.72554149 44.8401911 39.61887612 47 41.5 C50.89512811 44.89253093 54.72782763 48.35194201 58.5625 51.8125 C60.69417481 53.72554149 62.8401911 55.61887612 65 57.5 C68.89512811 60.89253093 72.72782763 64.35194201 76.5625 67.8125 C78.69417481 69.72554149 80.8401911 71.61887612 83 73.5 C86.89512811 76.89253093 90.72782763 80.35194201 94.5625 83.8125 C96.69417481 85.72554149 98.8401911 87.61887612 101 89.5 C104.02754767 92.13689636 107.01937279 94.81016569 110 97.5 C114.29684708 101.37636051 118.63528331 105.20043587 123 109 C124.50031934 110.31213495 126.00032601 111.62462751 127.5 112.9375 C128.1703125 113.52402344 128.840625 114.11054688 129.53125 114.71484375 C130.0159375 115.13894531 130.500625 115.56304687 131 116 C125.73271035 140.25725497 115.00175336 160.12690399 99 179 C98.46503906 179.65871094 97.93007813 180.31742188 97.37890625 180.99609375 C93.66019737 185.52102678 89.47279981 189.23463281 85 193 C84.15953125 193.75152344 83.3190625 194.50304687 82.453125 195.27734375 C61.17939292 213.87716751 34.49781932 225.67249942 7.25 232.3125 C6.25750244 232.55500488 5.26500488 232.79750977 4.24243164 233.04736328 C-9.86144129 236.32087763 -23.52848382 237.32971654 -37.94677734 237.26074219 C-40.65614476 237.24987508 -43.36486944 237.26077926 -46.07421875 237.2734375 C-47.81250145 237.27211812 -49.55078375 237.26956033 -51.2890625 237.265625 C-52.49219589 237.27169769 -52.49219589 237.27169769 -53.71963501 237.27789307 C-60.1096624 237.22432551 -64.19250481 236.13596215 -68.890625 231.5859375 C-69.94938843 230.57285522 -69.94938843 230.57285522 -71.02954102 229.53930664 C-71.76229248 228.82508545 -72.49504395 228.11086426 -73.25 227.375 C-74.76338317 225.92219751 -76.27769763 224.4703645 -77.79296875 223.01953125 C-78.51661621 222.32424316 -79.24026367 221.62895508 -79.98583984 220.91259766 C-83.11754539 217.93880599 -86.35481338 215.10124747 -89.62890625 212.28515625 C-90.08136719 211.86105469 -90.53382812 211.43695313 -91 211 C-91 210.67 -91 210.34 -91 210 C-90.44469573 209.99761165 -89.88939146 209.99522329 -89.31725979 209.99276257 C-75.78710926 209.93355072 -62.25713811 209.85777374 -48.72717953 209.76428509 C-42.18409903 209.71957243 -35.64108093 209.68031799 -29.09790039 209.65356445 C-22.78246388 209.62754084 -16.46726738 209.5871444 -10.15197945 209.53681374 C-7.74350534 209.52013878 -5.33498972 209.50862844 -2.92646599 209.50238609 C0.44909912 209.4927522 3.82404932 209.46469994 7.19946289 209.43237305 C8.69055824 209.43452568 8.69055824 209.43452568 10.21177673 209.4367218 C15.90320132 209.3597229 19.98262359 208.75874575 25 206 C28.14878675 202.60899888 29.25628584 199.97540458 29.4375 195.4375 C29.24147357 191.54964246 28.58495431 189.03063609 26 186 C21.76861351 182.96208149 18.01890619 181.90864666 12.87402344 181.79467773 C12.07349548 181.77473251 11.27296753 181.75478729 10.44818115 181.73423767 C9.59387512 181.71752518 8.73956909 181.70081268 7.859375 181.68359375 C6.97719299 181.66281265 6.09501099 181.64203156 5.18609619 181.62062073 C2.37414169 181.55535133 -0.43790445 181.49634553 -3.25 181.4375 C-5.15886356 181.39429327 -7.06771793 181.35067829 -8.9765625 181.30664062 C-13.65094918 181.1989265 -18.32540761 181.09968505 -23 181 C-23 171.76 -23 162.52 -23 153 C-20.421875 152.01 -17.84375 151.02 -15.1875 150 C-7.62288813 146.9611564 -1.23139482 143.32906337 5 138 C5.66386719 137.43539062 6.32773438 136.87078125 7.01171875 136.2890625 C15.21409364 128.70942757 21.53992706 117.37196089 22.15821838 106.12089539 C22.17376266 105.06610489 22.18930695 104.01131439 22.20532227 102.92456055 C22.22526749 101.72369308 22.24521271 100.52282562 22.26576233 99.28556824 C22.28247482 97.99894791 22.29918732 96.71232758 22.31640625 95.38671875 C22.33699635 94.04864388 22.35799335 92.71057521 22.37937927 91.37251282 C22.43438775 87.86271206 22.48388994 84.35285468 22.53222656 80.84295654 C22.58259728 77.25658165 22.6382018 73.67028827 22.69335938 70.08398438 C22.80068105 63.05605903 22.90169885 56.02805815 23 49 C19.04 49 15.08 49 11 49 C11.0314209 51.64781494 11.0314209 51.64781494 11.06347656 54.34912109 C11.12827736 60.21632239 11.17407435 66.08351143 11.20724869 71.95096397 C11.22802189 75.50446139 11.25614773 79.05756754 11.30175781 82.61083984 C11.35399721 86.70674143 11.37302984 90.80223942 11.390625 94.8984375 C11.41127014 96.1592514 11.43191528 97.42006531 11.45318604 98.71908569 C11.45631195 111.13991238 7.48574496 120.97270178 -0.96484375 130.12890625 C-12.58257374 141.20041385 -26.99693581 145.40904363 -42.7265625 145.2109375 C-58.77654389 144.17669049 -72.27643769 138.07483511 -83 126 C-87.75064842 118.98351126 -91.26521539 111.67346199 -91.22705078 103.08642578 C-91.22689972 101.94569611 -91.22674866 100.80496643 -91.22659302 99.62966919 C-91.21627045 98.41383148 -91.20594788 97.19799377 -91.1953125 95.9453125 C-91.1924826 94.68862762 -91.18965271 93.43194275 -91.18673706 92.13717651 C-91.17746123 88.81299136 -91.15952381 85.48908576 -91.1373291 82.16497803 C-91.11678812 78.76625979 -91.10771778 75.36751256 -91.09765625 71.96875 C-91.07563379 65.31242333 -91.04218433 58.65622779 -91 52 C-87.5040813 54.17579694 -84.48850613 56.21785943 -83.36294556 60.32406616 C-83.16095503 63.13625296 -83.16154455 65.88074882 -83.23828125 68.69921875 C-83.23547653 69.73005081 -83.23267181 70.76088287 -83.2297821 71.82295227 C-83.22451413 75.11220179 -83.26501674 78.39862153 -83.3125 81.6875 C-83.3441548 84.95809286 -83.36525828 88.22773744 -83.36308289 91.49848938 C-83.36321122 93.52886131 -83.38291206 95.55936665 -83.42610168 97.58927917 C-83.45992977 108.65817238 -79.81064099 118.08461862 -72 126 C-59.96531146 136.37119064 -47.80973506 138.13084925 -32.40380859 137.21875 C-21.51162153 136.22754549 -12.05121413 130.73455937 -4.86328125 122.57421875 C1.22024167 114.37357883 3.4605455 106.44828957 3.38818359 96.32446289 C3.39344055 95.4028688 3.39869751 94.48127472 3.40411377 93.53175354 C3.41722262 90.51187751 3.40860733 87.49253683 3.3984375 84.47265625 C3.40046102 82.35713094 3.40337478 80.24160631 3.40713501 78.12608337 C3.41154618 73.70223316 3.40516681 69.27856527 3.39111328 64.85473633 C3.37403279 59.2048568 3.38386328 53.55540523 3.40183067 47.90554142 C3.41271007 43.53959473 3.40920295 39.17374822 3.4014473 34.80779839 C3.39945623 32.725539 3.40186584 30.64327031 3.40888596 28.5610218 C3.41656787 25.64208267 3.40480193 22.72382079 3.38818359 19.80493164 C3.39425629 18.95735291 3.40032898 18.10977417 3.40658569 17.23651123 C3.34226027 11.08872413 2.02029743 5.79361629 0 0 Z " fill="#266645" transform="translate(213,55)"/>
<path d="M0 0 C8.51065134 6.31487124 14.32154164 13.95397736 17.0625 24.25 C17.96572713 31.4648767 17.74335467 38.77868128 17.69140625 46.03515625 C17.6922365 48.14399844 17.69470174 50.25284055 17.69871521 52.36167908 C17.70156109 56.76353628 17.68698921 61.16488127 17.65942383 65.56665039 C17.62532266 71.18397808 17.63137817 76.80039209 17.6500864 82.41776371 C17.66069812 86.76663207 17.65168107 91.11529101 17.63670158 95.46413994 C17.63155134 97.53440159 17.63196282 99.6046854 17.63824654 101.67494392 C17.66812325 117.42756412 16.65629714 129.49573508 5.0625 141.25 C-6.1895242 151.13814247 -18.37545153 153.20325736 -32.921875 152.69921875 C-39.30301411 152.27452325 -44.44205845 150.50275356 -49.9375 147.25 C-50.76507813 146.78078125 -51.59265625 146.3115625 -52.4453125 145.828125 C-62.25547968 139.80604218 -67.86156731 131.24452327 -70.9375 120.25 C-71.23389123 117.14852579 -71.241482 114.06080413 -71.24389648 110.94677734 C-71.25222 110.02883392 -71.26054352 109.1108905 -71.26911926 108.16513062 C-71.29315819 105.13868934 -71.3019854 102.11246405 -71.30859375 99.0859375 C-71.31756703 96.97091612 -71.326689 94.85589537 -71.33595276 92.74087524 C-71.35243038 88.3075405 -71.36014024 83.87428114 -71.36303711 79.44091797 C-71.36840943 73.78538543 -71.40604773 68.13057101 -71.45178127 62.47524071 C-71.48166457 58.10492428 -71.48876317 53.73477811 -71.48976326 49.36436844 C-71.49394573 47.28093819 -71.50629988 45.1975065 -71.52728081 43.1141777 C-71.66985248 27.72861458 -70.76307768 16.10563319 -59.51953125 4.5078125 C-42.34518499 -10.50999709 -19.24083305 -11.83542652 0 0 Z " fill="#E7EFF3" transform="translate(199.9375,40.75)"/>
<path d="M0 0 C3.96 0 7.92 0 12 0 C12.0093457 1.76520996 12.01869141 3.53041992 12.02832031 5.34912109 C12.06400792 11.21659845 12.11790675 17.08376102 12.18390274 22.95096397 C12.22321796 26.50427324 12.25548356 30.05734062 12.27099609 33.61083984 C12.28919996 37.7070997 12.33921982 41.80245868 12.390625 45.8984375 C12.39185364 47.1592514 12.39308228 48.42006531 12.39434814 49.71908569 C12.59547429 61.96384647 16.44209648 71.82453606 24.7421875 80.90625 C35.21421418 90.81339557 49.04564839 95.00291798 63.25 95.3125 C78.25402877 94.83681084 91.9944068 89.90463363 102.7421875 79.27734375 C109.19690505 72.22853528 113.19729861 63.41341018 113.31884766 53.81103516 C113.33871735 52.61024323 113.35858704 51.40945129 113.37905884 50.17227173 C113.39061005 48.89081268 113.40216125 47.60935364 113.4140625 46.2890625 C113.43279211 44.95241118 113.45236684 43.61577145 113.4727478 42.27914429 C113.52388601 38.7775967 113.56360901 35.27601086 113.60089111 31.77429199 C113.64104627 28.19448526 113.69208583 24.61483515 113.7421875 21.03515625 C113.83872963 14.02354588 113.92219606 7.01184309 114 0 C117.96 0 121.92 0 126 0 C126.06808787 7.65028278 126.12299475 15.30045077 126.15543652 22.95096397 C126.17101602 26.50437151 126.19211071 30.05755894 126.22631836 33.61083984 C126.26549776 37.70672582 126.27977284 41.80238474 126.29296875 45.8984375 C126.30845261 47.1592514 126.32393646 48.42006531 126.33988953 49.71908569 C126.34273464 64.79248827 121.67123946 75.68004223 111.38671875 86.64453125 C102.02461261 95.88405662 92.56827049 100.22951885 80 104 C80 113.24 80 122.48 80 132 C82.80628906 131.96519531 85.61257812 131.93039063 88.50390625 131.89453125 C91.23770125 131.87109972 93.97148484 131.85290364 96.70532227 131.83520508 C98.59762625 131.82016754 100.48989566 131.79973215 102.38208008 131.77368164 C105.11027586 131.73707601 107.83800871 131.7202231 110.56640625 131.70703125 C111.40522842 131.69154739 112.2440506 131.67606354 113.10829163 131.66011047 C119.94467026 131.65817486 124.63399452 132.89116903 129.875 137.5625 C133.16910255 141.34102939 133.34003871 143.80298915 133.28515625 148.6796875 C132.73713772 153.13890679 130.22383773 155.89089706 127 158.8125 C123.46394742 160.91203122 120.13648004 161.12698112 116.07962036 161.14717102 C115.08992249 161.15432632 114.10022461 161.16148163 113.08053589 161.16885376 C112.00095612 161.17154266 110.92137634 161.17423157 109.80908203 161.17700195 C108.66721436 161.18357315 107.52534668 161.19014435 106.34887695 161.19691467 C102.56852148 161.21663325 98.78820565 161.22830551 95.0078125 161.23828125 C93.71712734 161.24235678 92.42644218 161.2464323 91.09664536 161.25063133 C84.97240196 161.26933422 78.84817843 161.28390341 72.72391236 161.2922433 C65.66262795 161.30201921 58.6016567 161.32835417 51.54048264 161.36874419 C45.4173027 161.40256349 39.29425433 161.41438976 33.17098618 161.41844749 C30.56904854 161.42332384 27.9671145 161.43496741 25.36523819 161.45348549 C21.72647248 161.47777902 18.08852866 161.47692955 14.44970703 161.4699707 C12.83641006 161.48918579 12.83641006 161.48918579 11.19052124 161.50878906 C5.12620208 161.46648228 1.61182322 161.05315586 -3 157 C-6.04296381 153.54582486 -7.86852827 151.36730597 -8.3125 146.75 C-7.84893637 141.18723644 -5.50593544 138.35901491 -1.4375 134.6875 C1.8726535 132.39585527 4.36034978 131.87495704 8.2878418 131.88647461 C9.14850754 131.88655014 10.00917328 131.88662567 10.8959198 131.88670349 C11.82100845 131.89186478 12.74609711 131.89702606 13.69921875 131.90234375 C14.64940384 131.9037587 15.59958893 131.90517365 16.5785675 131.90663147 C19.61491029 131.91223125 22.65117948 131.92478368 25.6875 131.9375 C27.74544164 131.94251503 29.80338444 131.94707793 31.86132812 131.95117188 C36.90760329 131.96134992 41.9537192 131.98092544 47 132 C47 122.76 47 113.52 47 104 C44.03 103.34 41.06 102.68 38 102 C22.64996363 96.15642345 10.23785098 85.22976804 3.1875 70.3125 C0.70971724 64.77156833 -0.12628858 59.9870756 -0.11352539 53.92456055 C-0.11344986 52.72369308 -0.11337433 51.52282562 -0.11329651 50.28556824 C-0.10813522 48.99894791 -0.10297394 47.71232758 -0.09765625 46.38671875 C-0.09578956 45.04865064 -0.09436684 43.71058185 -0.09336853 42.37251282 C-0.08956314 38.8626413 -0.07974988 35.35281161 -0.06866455 31.84295654 C-0.05840777 28.25663824 -0.05386179 24.67031314 -0.04882812 21.08398438 C-0.03812572 14.05597074 -0.02054506 7.02799169 0 0 Z " fill="#FDFEFD" transform="translate(110,104)"/>
<path d="M0 0 C3.96 0 7.92 0 12 0 C12.0093457 1.76520996 12.01869141 3.53041992 12.02832031 5.34912109 C12.06400792 11.21659845 12.11790675 17.08376102 12.18390274 22.95096397 C12.22321796 26.50427324 12.25548356 30.05734062 12.27099609 33.61083984 C12.28919996 37.7070997 12.33921982 41.80245868 12.390625 45.8984375 C12.39185364 47.1592514 12.39308228 48.42006531 12.39434814 49.71908569 C12.59547429 61.96384647 16.44209648 71.82453606 24.7421875 80.90625 C35.21421418 90.81339557 49.04564839 95.00291798 63.25 95.3125 C78.25402877 94.83681084 91.9944068 89.90463363 102.7421875 79.27734375 C109.19690505 72.22853528 113.19729861 63.41341018 113.31884766 53.81103516 C113.33871735 52.61024323 113.35858704 51.40945129 113.37905884 50.17227173 C113.39061005 48.89081268 113.40216125 47.60935364 113.4140625 46.2890625 C113.43279211 44.95241118 113.45236684 43.61577145 113.4727478 42.27914429 C113.52388601 38.7775967 113.56360901 35.27601086 113.60089111 31.77429199 C113.64104627 28.19448526 113.69208583 24.61483515 113.7421875 21.03515625 C113.83872963 14.02354588 113.92219606 7.01184309 114 0 C117.96 0 121.92 0 126 0 C126.06808787 7.65028278 126.12299475 15.30045077 126.15543652 22.95096397 C126.17101602 26.50437151 126.19211071 30.05755894 126.22631836 33.61083984 C126.26549776 37.70672582 126.27977284 41.80238474 126.29296875 45.8984375 C126.30845261 47.1592514 126.32393646 48.42006531 126.33988953 49.71908569 C126.34273464 64.79248827 121.67123946 75.68004223 111.38671875 86.64453125 C105.09058692 92.858226 98.23757539 97.70044991 90 101 C89.36731201 101.26039063 88.73462402 101.52078125 88.08276367 101.7890625 C80.4032443 104.54492975 72.63288162 104.52410844 64.57885742 104.50097656 C62.20172228 104.50000581 59.82784207 104.54170209 57.45117188 104.5859375 C40.60913609 104.71793852 26.95471571 98.86881884 14.6875 87.1875 C5.82175059 77.92771728 -0.14081831 66.88869636 -0.11352539 53.92456055 C-0.11344986 52.72369308 -0.11337433 51.52282562 -0.11329651 50.28556824 C-0.10813522 48.99894791 -0.10297394 47.71232758 -0.09765625 46.38671875 C-0.09578956 45.04865064 -0.09436684 43.71058185 -0.09336853 42.37251282 C-0.08956314 38.8626413 -0.07974988 35.35281161 -0.06866455 31.84295654 C-0.05840777 28.25663824 -0.05386179 24.67031314 -0.04882812 21.08398438 C-0.03812572 14.05597074 -0.02054506 7.02799169 0 0 Z " fill="#E2EBEF" transform="translate(110,104)"/>
<path d="M0 0 C0.94101563 0.40992188 1.88203125 0.81984375 2.8515625 1.2421875 C4.10931833 1.78658928 5.36713403 2.33085275 6.625 2.875 C7.55119141 3.27912109 7.55119141 3.27912109 8.49609375 3.69140625 C12.27955067 5.3242666 16.07214033 6.75517063 20 8 C20 11.63 20 15.26 20 19 C15.11888022 15.4890191 10.77636108 11.93492906 6.609375 7.60546875 C4.85657075 5.79430207 4.85657075 5.79430207 2.0625 3.6875 C1.381875 3.130625 0.70125 2.57375 0 2 C0 1.34 0 0.68 0 0 Z " fill="#286C46" transform="translate(137,200)"/>
</svg>
